<svg xmlns="http://www.w3.org/2000/svg" xml:space="preserve" viewBox="0 0 1357.9 192">
	<defs>
		<clipPath id="clip" clipPathUnits="userSpaceOnUse">
			<path id="gamepad" d="M5 3c-1 0-2 .5-2.5 1 0 .25-.25.5-.5.5-1 2-2 5.5-2 7.5 0 .75 1.25 2 2 2 1.25-.75 1.75-2.5 3-3h6c1.25.5 1.75 2.25 3 3 .75 0 2-1.25 2-2 0-2-1-5.5-2-7.5a.54.54 0 0 1-.5-.5C13 3.5 12 3 11 3s0 1-3 1-2-1-3-1Z"/>
		</clipPath>
	</defs>
	<g transform="translate(636.52 79.5)" stroke-linecap="round" stroke-linejoin="round" stroke-width="2">
		<use href="#gamepad" fill="#d094fc" stroke="#a54ce8" clip-path="url(#clip)" transform="matrix(16 0 0 16 -636.52 -111.5)"></use>
		<rect id="c" width="32" height="32" x="-572.52" y="-15.5" fill="#fff" rx="12" ry="12"/>
		<use href="#c" x="48"></use>
		<use href="#c" x="96"></use>
		<path fill="#d094fc" stroke="#a54ce8" stroke-linejoin="round" stroke-width="32" paint-order="stroke" d="M-332.52-31.5v79.96h20.67V5.93l29.98 42.53 25.87.08-32.43-43.3 28.21-36.74h-25.47l-26.16 35.96V-31.5Zm220.07 0v79.96h18.9v-5.3c.99 1.67 2.17 5.2 8.53 6.48 2.55.49 6.38.67 10 .67 3.14 0 6.17-.2 8.33-.3 12.35-.78 17.83-9.1 18.9-18.9.4-3.72.7-9.2.7-14.6 0-4.3-.2-8.52-.5-11.56-1.27-12.44-6.27-17.65-19.01-19.02-2.35-.3-5.88-.38-9.3-.38-3.54 0-6.97.1-9.32.58-4.21.79-6.36 2.17-8.12 4.42V-31.5Zm312.37 0v22.05c-1.77-2.25-3.94-3.63-8.15-4.42a59.64 59.64 0 0 0-10.09-.69c-3.23 0-6.37.2-8.53.4-12.73 1.38-17.72 6.58-19 19.02-.29 3.23-.48 7.93-.48 12.64 0 5.1.19 10.17.58 13.7 1.08 9.8 6.67 18.12 19.02 18.9 2.15.1 5.2.32 8.23.32 3.73 0 7.54-.2 10.1-.7 6.36-1.27 7.73-4.21 8.52-5.68l-.11 4.42 19.01.08V-31.5zm338.81 0v55.07c0 5.58-2.74 8.23-8.32 8.81a67.41 67.41 0 0 1-12.46 0c-5-.58-7.73-2.35-7.92-7.25-.1-1.67-.11-10.57-.11-12.43h-21.05v13.32c.39 17.05 7.04 23.22 24.28 23.9 4.02.2 8.93.39 13.73.39 3.04 0 5.98-.1 8.53-.3 17.44-1.36 24-9.68 24-26.53V-31.5zm-267.18 3.62v15h-11.97V4.55h11.97v26.94c0 13.82 9.1 17.56 23.41 17.95h2.43c3.92 0 7.96-.2 10.4-.4V31.3c-3.03.1-6.17.5-9.21.5h-1.48c-5.87-.3-6.16-3.14-6.16-5.79V4.55h16.86v-17.43h-16.86v-15zm-492.46 13.03c-3.62 0-7.25.2-10.78.4-12.15.79-20.87 3.73-22.34 19.31-.4 3.63-.5 8.42-.5 13.13 0 4.6.2 9.11.59 12.54 1.56 15.19 9.12 18.6 20.78 19.29 3.52.3 7.24.4 10.87.4 3.72 0 7.44-.1 10.87-.5 13.13-1.27 19.6-4.8 20.98-19.6.1-.68.09-.77.09-1.84h-18.82v.87c-.39 3.82-2.83 4.61-6.85 4.9-2.35.2-4.4.3-6.56.3-1.86 0-3.82-.1-5.78-.3-4.32-.38-6.57-.7-7.06-6.09-.1-1.07-.2-2.24-.2-3.12 0-.59.11-1.18.11-1.47h44.87c.1-3.24.2-7.64.2-11.86 0-3.33-.1-6.56-.4-9.1-1.18-10.49-6.07-15.48-21.16-16.86-2.94-.29-5.87-.4-8.9-.4zm214.58 0c-4.22 0-8.24.1-11.48.2-12.64.6-20.27 3.83-21.74 19.31-.39 3.72-.49 8.61-.49 13.42 0 4.7.2 9.4.5 12.83 1.56 15.09 9 18.52 20.75 19.3 3.14.2 7.36.39 11.77.39 4.01 0 7.64-.2 10.58-.5 13.22-1.27 19.4-4.77 20.78-19.57.3-3.82.38-8.44.38-13.15-.1-5.19-.18-10.28-.67-14.4-1.57-14.4-9.22-16.94-21.37-17.63-2.54-.2-5.58-.2-9.01-.2zm353.3 0c-4.21 0-8.22.1-11.45.2-12.64.6-20.3 3.83-21.76 19.31-.4 3.72-.5 8.61-.5 13.42 0 4.7.2 9.4.5 12.83 1.56 15.09 9.02 18.52 20.78 19.3 3.13.2 7.35.39 11.76.39 4.02 0 7.64-.2 10.58-.5 13.23-1.27 19.39-4.77 20.76-19.57.3-3.82.4-8.44.4-13.15-.1-5.19-.2-10.28-.69-14.4-1.57-14.4-9.21-16.94-21.36-17.63-2.55-.2-5.59-.2-9.02-.2zm254.87 0c-4.22 0-8.24.1-11.48.2-12.64.6-20.27 3.83-21.74 19.31-.39 3.72-.49 8.61-.49 13.42 0 4.7.2 9.4.5 12.83 1.56 15.09 9 18.52 20.75 19.3 3.14.2 7.36.39 11.76.39 4.02 0 7.65-.2 10.58-.5 13.23-1.27 19.41-4.77 20.79-19.57.29-3.82.38-8.44.38-13.15-.1-5.19-.2-10.28-.7-14.4-1.56-14.4-9.19-16.94-21.34-17.63-2.54-.2-5.58-.2-9.01-.2zm-539.29.4c-4.02 0-7.93.2-11.85.58-7.64.79-10.69 2.36-13.04 4.51-4.7 4.51-4.8 9.7-4.8 15.78H51c0-2.74.1-4.2 4.8-4.8 2.64-.29 5.38-.4 8.12-.4 2.16 0 4.22.1 6.27.2 3.83.3 4.51 2.16 4.51 4.51v2.75s-20.86.49-26.94 1.27c-11.46 1.47-15.3 5.48-16.47 12.43a49.52 49.52 0 0 0-.18 12.55c1.37 11.27 7.83 14 17.23 14.6 2.45.1 5.3.2 8.24.2 3.23 0 6.57-.1 9.22-.4 5.39-.6 7.83-1.56 9.89-3.91.1.98.18 2.15.38 3.04l17.54.09c-1.08-6.28-1.18-9.12-1.18-15.1V5.83c0-14.6-7.16-19.2-20.87-19.98-3.04-.2-5.96-.29-9-.29zm78 .58c-13.14 0-16.67 1.97-19.6 6.77v-5.78h-19.22v61.34h19.1V15.04c0-6.86 4.32-9.21 10.2-10.29 2.35-.4 5.2-.58 8.04-.58 3.43 0 6.76.18 9.6.38v-18.22c-2.75-.1-5.97-.2-8.13-.2zm-327.37.99 25.96 51.63-1.46 3.34c-1.46 3.24-4.01 4.8-10.08 4.8-.3 0-5.02-.01-10.9-.6v16.85c2.45.2 5.3.5 10.78.5 16.56 0 21.96-4.22 26.08-13.53l28.12-63h-21.47l-12.06 31.26-13.21-31.25zm603.28 0 22.52 61.34h24.5l22.44-61.34h-21.16L458.3 7.79c-.88 2.74-7.06 23.9-7.06 23.9s-5.96-20.46-7.14-24.28l-6.47-20.3zm220.44 0 25.96 51.63-1.45 3.34c-1.47 3.24-4.03 4.8-10.1 4.8-.3 0-5-.01-10.88-.6v16.85c2.45.2 5.3.5 10.78.5 16.56 0 21.96-4.22 26.07-13.53l28.1-63h-21.45l-12.05 31.26-13.21-31.25ZM-221.9.84c2.46 0 5 .1 7.15.3 4.12.39 5.11 2.53 5.4 5.17.1.69.1 1.49.1 2.08v.96h-26.26c.1-.3.1-.57.1-.96v-.9c.48-5.58 3.13-6.06 6.27-6.36 2.25-.2 4.8-.29 7.25-.29zm214.3.18c2.54 0 5.08.11 7.63.4C3.26 1.72 5.33 2.4 6 8c.3 2.64.38 6.38.38 10.2 0 3.92-.08 7.91-.38 10.76-.4 4.3-3.23 5.2-7.34 5.49-2.35.2-4.41.29-6.57.29-1.86 0-3.82-.1-5.78-.3-4.5-.38-7.07-.77-7.65-6.64-.3-2.65-.38-6.29-.38-9.91 0-3.53.1-6.94.29-9.5.59-6.07 3.52-6.77 6.85-7.07 2.35-.2 4.61-.29 6.96-.29zm353.3 0c2.55 0 5.1.11 7.65.4 3.24.3 5.3.98 5.99 6.57.3 2.64.38 6.38.38 10.2 0 3.92-.09 7.91-.38 10.76-.4 4.3-3.25 5.2-7.37 5.49-2.35.2-4.4.29-6.56.29-1.86 0-3.82-.1-5.78-.3-4.51-.38-7.05-.77-7.64-6.64-.3-2.65-.4-6.29-.4-9.91 0-3.53.12-6.94.31-9.5.6-6.07 3.52-6.77 6.86-7.07 2.35-.2 4.59-.29 6.94-.29zm254.86 0c2.55 0 5.1.11 7.64.4 3.23.3 5.3.98 5.98 6.57.3 2.64.38 6.38.38 10.2 0 3.92-.09 7.91-.38 10.76-.4 4.3-3.23 5.2-7.34 5.49-2.35.2-4.43.29-6.59.29-1.86 0-3.82-.1-5.78-.3-4.5-.38-7.05-.77-7.63-6.64-.3-2.65-.38-6.29-.38-9.91 0-3.53.1-6.94.29-9.5.59-6.07 3.52-6.77 6.85-7.07 2.35-.2 4.61-.29 6.96-.29zm-416.33.7c3.13 0 6.97.29 9.12.78 4.41.88 5.68 3.13 6.08 7.05a133.17 133.17 0 0 1-.12 16.16c-.49 4.12-2.04 7.35-6.65 8.24-1.66.29-4.3.49-6.85.49-2.16 0-4.22-.1-5.5-.3-4.2-.58-6.27-1.85-7.16-5.86-.49-2.16-.67-7.17-.67-11.68 0-3.03.1-5.87.3-7.34.48-4.5 2.34-6.56 7.83-7.34.88-.1 2.15-.2 3.62-.2zm-262 .08c1.38 0 2.76.1 3.74.2 5.39.79 7.23 2.84 7.72 7.35.2 1.57.31 4.4.31 7.54 0 4.31-.2 9.12-.69 11.28-.88 4.01-2.94 5.3-7.05 5.89-1.28.2-3.34.29-5.5.29a42 42 0 0 1-6.85-.5c-4.6-.87-6.17-4.11-6.76-8.23-.2-1.76-.3-5.3-.3-8.73 0-2.94.09-5.77.19-7.34.39-3.92 1.67-6.07 6.18-7.05 2.06-.4 5.78-.7 9.02-.7zM74.99 23.77l-.09 3.9c-.1 2.85-1.56 4.61-5.58 5.5-2.84.58-6.37.89-9.7.89-1.67 0-3.13-.1-4.6-.2-4.6-.3-5.8-1.29-6.19-2.66-.2-.59-.2-1.06-.2-1.65 0-.5.02-1 .11-1.38.4-1.57 1.27-2.94 4.4-3.33 5.59-.69 16.47-.88 21.85-1.07z"/>
	</g>
</svg>